<?xml version="1.0" standalone="no"?><!DOCTYPE svg PUBLIC "-//W3C//DTD SVG 1.1//EN" "http://www.w3.org/Graphics/SVG/1.1/DTD/svg11.dtd"><svg t="1528297893507" class="icon" style="" viewBox="0 0 1024 1024" version="1.1" xmlns="http://www.w3.org/2000/svg" p-id="2226" xmlns:xlink="http://www.w3.org/1999/xlink" width="200" height="200"><defs><style type="text/css"></style></defs><path d="M413.9 950.2l48.3-176.5c13.6-49.6 51.1-60.4 94.7-72.9 30-8.6 63.7-18.3 90.4-47.1 1.1 1.1 2 2.4 3.2 3.5 8.9 8.8 20.5 14.9 33.4 17.1-33.9 42.1-77.3 54.6-115.9 65.6-31.9 9.1-59.3 17-66.7 44.4L456 950.2h-42.1zM636 634.7H393.6l-24 75.7c-10.2-7.8-22.9-12.3-36.7-12.3h-2l20.1-63.4H231c3.4-13.2 3.4-27.2 0-40.6h132.7l22.4-70.4c11.6 6.7 24.8 11 38.8 12.3l-18.4 58.1h220.8l-127.7-84.6c9.9-9.5 17.5-21.1 22.4-33.9L656.7 565c-2.4 1.9-4.7 3.7-6.9 6-16 16.6-21.6 41.5-13.8 63.7zM388.9 734.8c2.2-0.4 25.2-4.3 25.2-4.3 14.5-3 27.6 10.6 23.7 25.2l-52.2 194.6h-42.1l43.8-163.4c4.3-8.4 6.7-17.7 6.7-27.8 0-8.9-1.7-17.1-5.1-24.3zM273.4 772C227 760.9 188 736.6 159 698.4c14.7-1.7 28.3-7.3 39.7-15.7 21.6 24.6 48.5 40.4 79.8 48.6-6.4 12.6-8.3 27.1-5.1 40.7zM102 543.4c-5.6-50.5-0.4-101.2 15.3-149.6 10.8 8.4 23.3 14.7 37.1 17.9-11.6 38.2-15.8 78.1-12.7 118-14.8 1.2-28.2 6.1-39.7 13.7z m116-309.2c55.3-52.9 124.5-89.6 199.4-105.7-1.9 13.6-0.2 27.6 4.5 40.6-64.1 14.5-123.9 46-172 90.9-8.6-10.9-19.4-19.6-31.9-25.8z m367.5-106.4c40.3 8.2 82.2 22 122.2 41-9.3 9.9-16.8 21.6-21.2 34.8-34.5-16-70.4-28-105.1-35.2 4.5-13 6-27 4.1-40.6z m272.9 154.5c18.6 22.5 33.9 47.3 45.1 74.2-14-0.2-27.8 3-40.3 9.3-8.6-19-19.6-36.7-32.6-53.5 11.2-7.8 20.7-18.1 27.8-30z m53.4 243.2C887 598 822.9 625.9 751.7 632.8c1.9-6 3-12.1 3-18.6 0-7.8-1.5-15.1-4.1-22 50.5-5.4 98.4-22 119.6-72.1 13.3 5.2 27.7 7.1 41.6 5.4z m-225.3 28c6.3-30.2 13-60.9 19.9-91.9h-180c3-13.2 3-27.2 0-40.6h189c7.5-33.4 14.9-66.5 22.2-99.9 12.7 5.6 25.9 8.2 39.7 8.2-6.5 30.2-13.4 60.9-20.3 91.7h62.2c-1.7 6.5-2.4 13.2-2.4 20.3 0 6.9 0.9 13.8 2.4 20.3h-71.4c-7.6 33.7-14.9 67.5-22 100.8-11.5-7.5-25.5-10.4-39.3-8.9zM341 420l-90-42.7c8.2-10.6 14.3-23.1 17.3-36.7l90 42.7c-7.9 10.6-14.1 23.1-17.3 36.7zM206.1 551.8l137.3-80.7c4.3 13.2 11.4 25 20.5 34.8l-135.5 79.8c-4.4-13-12.2-24.6-22.3-33.9z m229-205.4l10.4-44.7-175 24.8c0.2-2.4 0.2-4.7 0.2-7.1 0-11.6-2-22.7-6-33.2l190.6-27 10.1-42.9c10.8 5 22.9 7.8 35.8 7.8 1.3 0 2.8 0 4.1-0.2l-6.9 28.9 182.8-25.7c-0.9 13.6 0.9 27.4 5.6 40.3l-198.5 28-14.2 60.2c-11.4-5.6-24.8-9-39-9.2z" fill="#3B4552" p-id="2227"></path><path d="M693.6 580.3c18.8 0 33.9 15.3 33.9 33.9 0 18.8-15.3 33.9-33.9 33.9-18.8 0-33.9-15.1-33.9-33.9 0-18.8 15.3-33.9 33.9-33.9zM333 725.1c18.8 0 33.9 15.3 33.9 33.9s-15.1 33.9-33.9 33.9-33.9-15.3-33.9-33.9 15.1-33.9 33.9-33.9z m100.7-351.7c37.5 0 67.8 30.4 67.8 67.8S471.1 509 433.7 509s-67.8-30.4-67.8-67.8 30.3-67.8 67.8-67.8z m-257.8-122c37.5 0 67.8 30.4 67.8 67.8S213.4 387 175.9 387s-67.8-30.4-67.8-67.8 30.4-67.8 67.8-67.8z m-27.2 305c31.9 0 57.6 25.9 57.6 57.6 0 31.9-25.9 57.6-57.6 57.6-31.9 0-57.6-25.9-57.6-57.6 0-31.7 25.8-57.6 57.6-57.6zM501.5 81.8c31.9 0 57.6 25.9 57.6 57.6 0 31.9-25.9 57.6-57.6 57.6-31.9 0-57.6-25.9-57.6-57.6s25.7-57.6 57.6-57.6z m274.9 84.8c37.5 0 67.8 30.4 67.8 67.8s-30.4 67.8-67.8 67.8c-37.5 0-67.8-30.4-67.8-67.8s30.3-67.8 67.8-67.8z m125.4 217.1c31.9 0 57.6 25.9 57.6 57.6 0 31.9-25.9 57.6-57.6 57.6-31.9 0-57.6-25.9-57.6-57.6s25.7-57.6 57.6-57.6z" fill="#3B4552" p-id="2228"></path><path d="M417.1 454.4c0.2 4.9 1.2 8.6 3.2 10.9 1.9 2.5 5.6 3.9 10.7 4.4v-27c-7-1.2-12.3-3.3-15.2-6.5-3.2-3.2-4.7-7.2-4.7-12.3 0-5.4 1.6-9.6 4.9-13 3.3-3.2 8.2-5.1 15.1-5.6v-8.6h6v8.6c6.7 0.7 11.4 2.6 14.4 5.8 3 3.2 4.4 7.4 4.4 12.4h-7.4c-0.5-3.9-1.6-6.7-3.2-8.6-1.6-1.9-4.4-3-8.2-3.2V436c2.3 0.5 4 1.1 5.4 1.4 1.4 0.4 2.5 0.7 3.5 1.1 0.9 0.4 1.6 0.7 2.1 1.1 0.5 0.4 1.2 0.7 2.1 1.2 2.6 1.8 4.7 3.9 6 6.3 1.2 2.5 1.9 5.4 1.9 9.1 0 6-1.8 10.7-5.1 13.8-3.3 3.3-8.6 5.3-15.8 5.8v9.6h-6V476c-7.7-0.5-13.3-2.8-16.6-6.3-3.3-3.7-4.9-8.8-4.9-15.4l7.4 0.1z m4-23.6c1.8 1.9 5.1 3.3 9.8 4.2v-23.3c-4.4 0.2-7.5 1.2-9.5 3.3-2.1 2.1-3 4.7-3 8.2-0.1 3.2 0.8 5.8 2.7 7.6z m26.3 17.8c-1.9-2.3-5.4-3.9-10.5-4.9v25.9c4.2-0.2 7.5-1.4 9.8-3.7 2.3-2.3 3.5-5.3 3.5-8.8 0-3.4-0.9-6.4-2.8-8.5z" fill="#FF960B" p-id="2229"></path></svg>