<?xml version="1.0" standalone="no"?><!DOCTYPE svg PUBLIC "-//W3C//DTD SVG 1.1//EN" "http://www.w3.org/Graphics/SVG/1.1/DTD/svg11.dtd"><svg t="1528079296665" class="icon" style="" viewBox="0 0 1024 1024" version="1.1" xmlns="http://www.w3.org/2000/svg" p-id="2998" xmlns:xlink="http://www.w3.org/1999/xlink" width="200" height="200"><defs><style type="text/css"></style></defs><path d="M226.381279 759.528258h77.526924c13.518987 0 24.483976-10.954989 24.483976-24.475976V389.58762c0-13.516987-10.964989-24.475976-24.483976-24.475977h-77.526924c-13.519987 0-24.479976 10.958989-24.479976 24.475977v345.465662c0 13.519987 10.959989 24.474976 24.479976 24.474976z m249.052757 0h77.522924c13.519987 0 24.479976-16.018984 24.479976-35.786965V218.647786c0-19.768981-10.959989-35.786965-24.479976-35.786965h-77.522924c-13.519987 0-24.483976 16.018984-24.483976 35.786965v505.093507c0 19.768981 10.963989 35.786965 24.483976 35.786965z m249.047756 0h77.526925c13.519987 0 24.479976-14.882985 24.479976-33.255967V256.921749c0-18.372982-10.959989-33.255968-24.479976-33.255967h-77.526925c-13.515987 0-24.483976 14.882985-24.483976 33.255967v469.351542c0.001 18.361982 10.968989 33.254968 24.483976 33.254967z m-605.544408 40.80396h786.126232v40.803961H118.937384v-40.803961z" fill="#ffffff" p-id="2999"></path></svg>