<?xml version="1.0" standalone="no"?><!DOCTYPE svg PUBLIC "-//W3C//DTD SVG 1.1//EN" "http://www.w3.org/Graphics/SVG/1.1/DTD/svg11.dtd"><svg t="1528297682464" class="icon" style="" viewBox="0 0 1025 1024" version="1.1" xmlns="http://www.w3.org/2000/svg" p-id="1791" xmlns:xlink="http://www.w3.org/1999/xlink" width="200.1953125" height="200"><defs><style type="text/css"></style></defs><path d="M708.383253 957.296943c-6.289728 0-12.576383-2.398963-17.376358-7.19689l-392.936471-392.937495c-25.550034-25.550034-25.550034-67.121826 0-92.671861 0.12389-0.12389 0.249828-0.246756 0.375766-0.367575l407.301582-390.221127c9.799606-9.388005 25.355496-9.056266 34.744525 0.744365s9.056266 25.355496-0.744365 34.744525L332.676724 499.389828c-3.002032 3.076775-4.652535 7.130337-4.652535 11.436799 0 4.375062 1.704769 8.490057 4.798951 11.583215l392.936471 392.936471c9.595853 9.596877 9.595853 25.154815 0 34.751692C720.961684 954.896956 714.670933 957.296943 708.383253 957.296943z" p-id="1792"></path></svg>