<?xml version="1.0" standalone="no"?><!DOCTYPE svg PUBLIC "-//W3C//DTD SVG 1.1//EN" "http://www.w3.org/Graphics/SVG/1.1/DTD/svg11.dtd"><svg t="1527577955550" class="icon" style="" viewBox="0 0 1025 1024" version="1.1" xmlns="http://www.w3.org/2000/svg" p-id="2119" xmlns:xlink="http://www.w3.org/1999/xlink" width="200.1953125" height="200"><defs><style type="text/css"></style></defs><path d="M113.917481 512.118771" p-id="2120"></path><path d="M627.718496 271.290703" p-id="2121"></path><path d="M529.320044 198.976755 529.320044 198.976755 529.320044 198.976755Z" p-id="2122"></path><path d="M1004.305566 475.737053c-44.22775-68.45083-92.719983-127.431744-144.127218-175.301454-43.802838-40.78852-90.242181-74.027933-138.026909-98.794695-86.977011-45.079623-158.148303-51.810645-192.831395-51.810645l0 49.146496c57.263858 0 252.065209 22.310461 433.706561 303.433535 3.597933 5.567888 3.865167 12.656247 0.717744 18.491369-27.467772 50.911674-169.786808 288.038396-450.804422 315.148831-0.212968 0.020478-0.422865 0.030717-0.635833 0.030717-0.024573 0-0.049146 0-0.07372 0-10.905403-0.111604-258.756299-6.051162-454.244677-314.51607-4.044347-6.381877-4.130353-14.502312-0.262115-20.992721 32.008703-53.706881 188.301726-291.144864 454.879485-300.801126 0 0 5.91089-0.793511 16.710832-0.794535 0.002048 0 0.004096 0 0.006143 0l-0.002048-49.146496c-9.636809 0-16.5337 0.511943-20.355864 0.896924-67.372678 2.688723-133.33649 18.831299-196.103732 47.993601-51.694946 24.018302-101.53666 57.005839-148.140848 98.048283C83.521398 368.276193 33.3203 445.519126 15.505719 475.410434c-6.538532 10.971955-9.914282 23.518646-9.761723 36.285472 0.153583 12.833379 3.863119 25.34321 10.729294 36.17694 47.26357 74.577759 101.53666 138.555234 161.311085 190.155983 48.724655 42.061209 101.256115 76.08799 156.135345 101.136321 40.240741 18.367479 80.909466 31.60734 120.873758 39.352009 30.959221 5.999968 51.404163 6.651159 56.933143 6.707473l0.577471 0.003072c1.794871 0 3.609196-0.088054 5.393828-0.261091 70.770954-6.827267 138.90745-26.524773 202.478442-58.541667 52.118835-26.248324 101.488537-60.921177 146.738125-103.055082 78.782856-73.357288 124.209577-149.710464 140.082871-179.132833C1018.665557 522.610524 1017.633481 496.363223 1004.305566 475.737053z" p-id="2123"></path><path d="M513.659718 433.616459c44.080311 0 79.814933 35.734622 79.814933 79.814933s-35.734622 79.814933-79.814933 79.814933-79.814933-35.734622-79.814933-79.814933S469.579407 433.616459 513.659718 433.616459M513.659718 384.469963c-34.446574 0-66.832067 13.413922-91.189275 37.772154-24.357208 24.357208-37.772154 56.742701-37.772154 91.189275s13.413922 66.832067 37.772154 91.189275 56.742701 37.772154 91.189275 37.772154 66.832067-13.413922 91.189275-37.772154c24.357208-24.357208 37.772154-56.742701 37.772154-91.189275s-13.413922-66.832067-37.772154-91.189275C580.491785 397.883885 548.107316 384.469963 513.659718 384.469963L513.659718 384.469963z" p-id="2124"></path></svg>