<?xml version="1.0" standalone="no"?><!DOCTYPE svg PUBLIC "-//W3C//DTD SVG 1.1//EN" "http://www.w3.org/Graphics/SVG/1.1/DTD/svg11.dtd"><svg t="1528298133970" class="icon" style="" viewBox="0 0 1024 1024" version="1.1" xmlns="http://www.w3.org/2000/svg" p-id="3119" xmlns:xlink="http://www.w3.org/1999/xlink" width="200" height="200"><defs><style type="text/css"></style></defs><path d="M817.956 400.467h-36.287v-13.471c0-72.697-28.521-141.145-80.221-192.967-51.7-51.7-120.271-80.221-192.967-80.221s-141.145 28.521-192.967 80.221c-51.7 51.7-80.221 120.271-80.221 192.967v13.471h-35.195c-52.914 0-89.808 36.895-89.808 89.808v154.010c0 49.516 40.292 89.808 89.808 89.808h46.239v0.242c0 69.541 56.676 126.218 126.218 126.218h41.991c1.942 24.88 22.938 44.661 48.423 44.661h92.479c26.7 0 48.545-21.845 48.545-48.545v-31.312c0-26.7-21.845-48.545-48.545-48.545h-92.479c-25.486 0-46.482 19.903-48.423 44.905h-41.991c-48.181 0-87.381-39.2-87.381-87.381v-8.738l0.85-0.85c0.485-0.485 0.971-1.092 1.334-1.578 0.122-0.122 0.122-0.242 0.242-0.364 0.485-0.607 0.85-1.092 1.214-1.699 0-0.122 0.122-0.122 0.122-0.242 0.364-0.607 0.729-1.092 1.092-1.699 0-0.122 0.122-0.122 0.122-0.242 0.364-0.607 0.607-1.214 0.971-1.942 0-0.122 0.122-0.242 0.122-0.364 0.242-0.607 0.485-1.334 0.729-1.942 0-0.122 0.122-0.242 0.122-0.242 0.242-0.607 0.485-1.334 0.607-2.063v-0.122c0.242-0.729 0.364-1.456 0.485-2.185 0-0.122 0-0.242 0.122-0.364 0.122-0.729 0.242-1.456 0.242-2.185v-0.364c0-0.729 0.122-1.578 0.122-2.306v-317.85c0-118.45 96.362-214.813 214.813-214.813s214.813 96.362 214.813 214.813v317.971c0 16.142 12.986 29.127 29.127 29.127h65.294c49.516 0 89.808-40.292 89.808-89.808v-154.010c0.242-52.914-36.652-89.808-89.566-89.808zM168.543 644.286v-154.010c0-26.093 17.113-31.554 31.554-31.554h35.316v217.119h-35.316c-17.476 0-31.554-14.199-31.554-31.554zM849.51 644.286c0 17.355-14.199 31.554-31.554 31.554h-36.287v-217.119h36.287c14.442 0 31.554 5.461 31.554 31.554v154.010z" fill="" p-id="3120"></path></svg>