<?xml version="1.0" standalone="no"?><!DOCTYPE svg PUBLIC "-//W3C//DTD SVG 1.1//EN" "http://www.w3.org/Graphics/SVG/1.1/DTD/svg11.dtd"><svg t="1527429572004" class="icon" style="" viewBox="0 0 1024 1024" version="1.1" xmlns="http://www.w3.org/2000/svg" p-id="1432" xmlns:xlink="http://www.w3.org/1999/xlink" width="200" height="200"><defs><style type="text/css"></style></defs><path d="M649.903813 626.301256c-45.25367-35.218106-96.342232-55.420217-140.172483-55.420217-22.194488 0-45.985334 11.274788-67.753103 23.760147-13.888312-18.381649-34.242895-47.042409-44.388976-64.753793-9.42465-16.511046-20.577664-41.72531-28.732391-64.164369 15.890922-6.52767 30.378891-14.619976 40.250726-25.986861 33.235962-38.217417 47.114041-100.348476 38.08541-170.4603-12.983709-100.754728-77.981049-183.992501-147.970076-189.482539-40.11872-3.090385-87.640036 6.974855-121.008005 25.813922-48.883337 27.613918-83.827197 75.286684-101.04944 137.854695-32.005948 116.311029-0.914836 273.522584 83.166141 420.548148 101.212146 176.936805 258.68976 295.819402 391.866922 295.819402 36.468586 0 70.081125-8.550747 99.901291-25.397437 16.379039-9.231245 70.925353-43.250036 85.128843-92.946902C753.86149 783.279497 739.669256 696.178743 649.903813 626.301256zM677.16162 824.324308c-5.703909 19.967774-32.117488 42.3659-55.776328 55.714929-20.344351 11.498892-43.61638 17.324574-69.186755 17.324574-109.762893 0-248.604054-108.716051-337.635787-264.361947-74.880431-130.931005-104.456027-273.837762-77.16752-372.956224 12.891611-46.850028 36.966936-80.512708 71.535243-100.04353 19.926842-11.245112 49.625234-18.311041 75.387991-18.311041 3.415796 0 6.771217 0.132006 10.014074 0.38681 30.337959 2.379187 80.166831 51.892881 90.90336 135.191028 6.557346 50.885947-2.358721 97.44024-23.231097 121.455189-2.134617 2.297322-9.577123 7.42204-35.431977 15.911388-30.856775 10.126638-28.996404 31.253818-26.759457 39.905872 8.083096 31.05018 27.206642 77.756945 43.554982 106.35733 11.915377 20.822235 33.103956 50.163493 39.315424 58.664098 26.810622 36.69269 34.547841 46.290279 52.146661 46.290279 9.780761 0 15.962553-3.730974 27.175943-10.502192 9.018398-5.438872 36.459377-22.001083 47.723931-22.001083 29.758768 0 67.813478 15.789615 101.802594 42.244126C676.755368 726.365252 688.203094 785.709849 677.16162 824.324308z" p-id="1433"></path><path d="M540.852118 282.392602c-17.252943 0-31.233352 13.979386-31.233352 31.233352l0 30.470989c0 17.252943 13.979386 31.233352 31.233352 31.233352 17.252943 0 31.233352-13.979386 31.233352-31.233352l0-30.470989C572.08547 296.371988 558.105061 282.392602 540.852118 282.392602z" p-id="1434"></path><path d="M784.626167 282.392602c-17.252943 0-31.233352 13.979386-31.233352 31.233352l0 30.470989c0 17.252943 13.979386 31.233352 31.233352 31.233352s31.233352-13.979386 31.233352-31.233352l0-30.470989C815.859519 296.371988 801.880133 282.392602 784.626167 282.392602z" p-id="1435"></path><path d="M739.761354 423.835008c-14.304797-9.393951-33.592073-5.398964-43.158962 8.763594-0.132006 0.193405-13.614066 19.754926-34.171264 19.754926-19.98824 0-32.432667-18.117636-33.266661-19.378349-9.181103-14.407128-28.294416-18.819624-42.833551-9.750061-14.650675 9.099239-19.154245 28.355815-10.044774 43.00649 11.214413 18.046005 41.968857 48.588625 86.144986 48.588625 43.962258 0 75.103512-30.318516 86.571704-48.222281C758.224868 452.201056 754.035452 433.240215 739.761354 423.835008z" p-id="1436"></path><path d="M586.045413 64.482617c-37.821397 0-75.154677 5.571902-110.962208 16.562211-16.480346 5.063319-25.752524 22.540366-20.690228 39.030945 5.063319 16.470113 22.468734 25.752524 39.030945 20.690228 29.849842-9.17087 61.022819-13.81668 92.621491-13.81668 171.863253 0 311.679625 138.057309 311.679625 307.755246 0 90.191138-39.885406 175.543062-109.427248 234.17646-13.186324 11.122315-14.864546 30.826076-3.751441 44.013423 6.181793 7.329942 15.006785 11.102872 23.902386 11.102872 7.106862 0 14.253632-2.409886 20.110013-7.350408 83.654258-70.52831 131.63197-173.296905 131.63197-281.941324C960.190719 230.56112 792.354176 64.482617 586.045413 64.482617z" p-id="1437"></path></svg>