<?xml version="1.0" standalone="no"?><!DOCTYPE svg PUBLIC "-//W3C//DTD SVG 1.1//EN" "http://www.w3.org/Graphics/SVG/1.1/DTD/svg11.dtd"><svg t="1528298853131" class="icon" style="" viewBox="0 0 1024 1024" version="1.1" xmlns="http://www.w3.org/2000/svg" p-id="1085" xmlns:xlink="http://www.w3.org/1999/xlink" width="200" height="200"><defs><style type="text/css"></style></defs><path d="M512 972.8c-253.44 0-460.8-207.36-460.8-460.8S258.56 51.2 512 51.2s460.8 207.36 460.8 460.8-207.36 460.8-460.8 460.8z m0-51.2c225.28 0 409.6-184.32 409.6-409.6S737.28 102.4 512 102.4 102.4 286.72 102.4 512s184.32 409.6 409.6 409.6z m0-204.8c-143.36 0-281.6-104.96-281.6-204.8s138.24-204.8 281.6-204.8 281.6 104.96 281.6 204.8-138.24 204.8-281.6 204.8z m0-51.2c117.76 0 230.4-87.04 230.4-153.6s-112.64-153.6-230.4-153.6-230.4 87.04-230.4 153.6 112.64 153.6 230.4 153.6z m0-51.2c-56.32 0-102.4-46.08-102.4-102.4s46.08-102.4 102.4-102.4 102.4 46.08 102.4 102.4-46.08 102.4-102.4 102.4z m0-51.2c28.16 0 51.2-23.04 51.2-51.2s-23.04-51.2-51.2-51.2-51.2 23.04-51.2 51.2 23.04 51.2 51.2 51.2z" p-id="1086"></path></svg>