<?xml version="1.0" standalone="no"?><!DOCTYPE svg PUBLIC "-//W3C//DTD SVG 1.1//EN" "http://www.w3.org/Graphics/SVG/1.1/DTD/svg11.dtd"><svg t="1528297964127" class="icon" style="" viewBox="0 0 1024 1024" version="1.1" xmlns="http://www.w3.org/2000/svg" p-id="2945" xmlns:xlink="http://www.w3.org/1999/xlink" width="200" height="200"><defs><style type="text/css"></style></defs><path d="M448 640l384 0L832 576 448 576 448 640zM448 768l384 0 0-64L448 704 448 768zM448 512l384 0L832 448 448 448 448 512z" p-id="2946"></path><path d="M320 896 128 896 128 0 768 0 768 192 704 192 704 64 192 64 192 832 320 832Z" p-id="2947"></path><path d="M896 256l0 704L384 960 384 256 896 256M960 192 320 192l0 832 640 0L960 192 960 192z" p-id="2948"></path></svg>