<?xml version="1.0" standalone="no"?><!DOCTYPE svg PUBLIC "-//W3C//DTD SVG 1.1//EN" "http://www.w3.org/Graphics/SVG/1.1/DTD/svg11.dtd"><svg t="1527577905298" class="icon" style="" viewBox="0 0 1025 1024" version="1.1" xmlns="http://www.w3.org/2000/svg" p-id="1934" xmlns:xlink="http://www.w3.org/1999/xlink" width="200.1953125" height="200"><defs><style type="text/css"></style></defs><path d="M954.742349 919.778713 756.657398 721.798199c28.399507-32.029181 51.217816-68.139568 67.935815-107.665637 20.543235-48.571072 30.960244-100.152367 30.960244-153.311469s-10.417009-104.739373-30.960244-153.311469c-19.837778-46.902139-48.232166-89.019662-84.395796-125.182268-36.161582-36.162606-78.279105-64.556994-125.182268-84.394772-48.571072-20.543235-100.152367-30.960244-153.311469-30.960244S356.964308 77.389348 308.393236 97.932584c-46.902139 19.837778-89.019662 48.232166-125.182268 84.394772s-64.556994 78.280129-84.394772 125.182268c-20.543235 48.571072-30.960244 100.152367-30.960244 153.311469s10.417009 104.739373 30.960244 153.311469c19.837778 46.903163 48.232166 89.019662 84.394772 125.182268 36.162606 36.162606 78.280129 64.558018 125.182268 84.395796 48.571072 20.543235 100.152367 30.960244 153.311469 30.960244s104.739373-10.417009 153.311469-30.960244c39.188187-16.574656 75.020078-39.145184 106.844481-67.206809l198.14024 198.03478c4.798951 4.796903 11.083559 7.192794 17.371238 7.192794 6.290751 0 12.582527-2.402035 17.380453-7.202009C964.345369 944.930456 964.341274 929.372518 954.742349 919.778713zM461.704705 805.524373c-92.072888 0-178.635225-35.85544-243.741021-100.960212s-100.961236-151.669157-100.961236-243.742045 35.85544-178.635225 100.961236-243.741021 151.668133-100.961236 243.741021-100.961236 178.636249 35.85544 243.742045 100.961236 100.960212 151.668133 100.960212 243.741021-35.85544 178.636249-100.960212 243.742045S553.777593 805.524373 461.704705 805.524373z" p-id="1935" fill="#2c2c2c"></path></svg>